<?xml version="1.0" encoding="UTF-8"?>
<svg width="126px" height="94px" viewBox="0 0 126 94" version="1.1" xmlns="http://www.w3.org/2000/svg" xmlns:xlink="http://www.w3.org/1999/xlink">
    <!-- Generator: Sketch 51.3 (57544) - http://www.bohemiancoding.com/sketch -->
    <title>Slice 1</title>
    <desc>Created with Sketch.</desc>
    <defs></defs>
    <g id="Page-1" stroke="none" stroke-width="1" fill="none" fill-rule="evenodd">
        <g id="slender-fill" transform="translate(35.000000, 0.000000)" fill="#471098" fill-rule="nonzero">
            <path d="M18.4,27.254 C18.4306655,26.0094929 17.7117656,24.8680442 16.57612,24.3580957 C15.4404745,23.8481471 14.1097441,24.069233 13.2,24.919 L8,29.829 C6.75956848,30.9990152 6.7024848,32.9530684 7.87250003,34.1935 C9.04251526,35.4339315 10.9965684,35.4910152 12.237,34.321 L17.437,29.411 C18.0330253,28.8493483 18.3797573,28.0727118 18.4,27.254 Z" id="Shape"></path>
            <path d="M42.092,1.011 C38.0208378,0.88612256 34.0681742,2.39109357 31.111,5.192 C9.12,25.958 30.392,5.872 20.711,15.015 C20.3149272,15.3957415 20.0816245,15.9150281 20.06,16.464 C20.004,18.704 23.944,20.457 26.429,18.107 L33.894,11.061 C34.4725599,10.5147666 35.2444197,10.2207472 36.039768,10.2436268 C36.8351163,10.2665065 37.5887977,10.6044108 38.135,11.183 L52.886,26.817 C61.756,17.3 55.41,1.4 42.092,1.011 Z" id="Shape"></path>
            <path d="M29.619,39.146 C29.6496655,37.9014929 28.9307656,36.7600442 27.79512,36.2500957 C26.6594745,35.7401471 25.3287441,35.961233 24.419,36.811 L19.219,41.721 C18.4167601,42.4778671 18.0792437,43.6052311 18.3335899,44.6784248 C18.5879361,45.7516186 19.3955038,46.6075983 20.4520899,46.9239249 C21.5086761,47.2402514 22.6537601,46.9688672 23.456,46.212 L28.656,41.302 C29.2522454,40.7409195 29.5990469,39.9644874 29.619,39.146 Z" id="Shape"></path>
            <path d="M52.151,28.949 C52.051,28.878 52.362,29.177 36.679,12.556 C36.4968304,12.3631275 36.2454839,12.2505499 35.9802872,12.2430479 C35.7150905,12.2355459 35.4577817,12.3337344 35.265,12.516 L27.8,19.56 C26.6237361,20.67335 25.0526037,21.2725697 23.4336815,21.2252854 C21.8147593,21.1780012 20.2812784,20.4881044 19.172,19.308 C18.4302894,18.5254236 18.0304242,17.4798963 18.0606288,16.4020986 C18.0908334,15.3243008 18.5486255,14.3028088 19.333,13.563 L27.523,5.829 C23.7699279,1.80217336 18.147868,0.09343739 12.7887619,1.35076197 C7.42965588,2.60808655 3.15418467,6.63892791 1.58365,11.9147505 C0.01311533,17.190573 1.38802521,22.9034496 5.187,26.887 L6.605,28.387 C6.693,28.287 6.614,28.376 11.821,23.461 C13.41875,21.9540593 15.8040994,21.6448099 17.7333043,22.6944976 C19.6625091,23.7441852 20.6984591,25.9149764 20.301,28.075 C21.9058351,27.8626846 23.5149566,28.4343178 24.6261788,29.6115003 C25.7374011,30.7886828 26.2154006,32.4280585 25.911,34.018 C27.5165497,33.8074487 29.1255665,34.3805324 30.2365237,35.5586223 C31.347481,36.7367123 31.825283,38.3765492 31.521,39.967 C33.0853051,39.7584986 34.6567628,40.2963973 35.7651826,41.4197533 C36.8736025,42.5431093 37.39042,44.1216257 37.161,45.683 C38.4857687,46.4530017 40.1749908,46.1332028 41.1266218,44.9322394 C42.0782529,43.731276 42.0034439,42.0136771 40.951,40.9 L27.627,26.783 C27.3817372,26.5230893 27.2937657,26.1520757 27.3962236,25.8097165 C27.4986814,25.4673573 27.7760029,25.205665 28.1237236,25.1232165 C28.4714443,25.040768 28.8367372,25.1500893 29.082,25.41 L42.406,39.531 C43.1632244,40.3330612 44.2908232,40.670222 45.3640408,40.415477 C46.4372585,40.1607321 47.2930476,39.3527832 47.6090408,38.295977 C47.9250341,37.2391708 47.6532244,36.0940612 46.896,35.292 L33.571,21.172 C33.2002273,20.769096 33.222421,20.1429326 33.6207884,19.7672898 C34.0191559,19.3916471 34.6455428,19.406228 35.026,19.8 L48.352,33.92 C49.2108369,34.8274328 50.531625,35.1283701 51.6987947,34.6825563 C52.8659644,34.2367426 53.6498059,33.1319181 53.685,31.883 C53.6389385,30.7246017 53.075983,29.6478667 52.151,28.949 Z" id="Shape"></path>
            <path d="M32.233,41.916 C31.4143631,41.889941 30.6193124,42.192406 30.025,42.756 L24.825,47.667 C24.0227601,48.4240458 23.6853389,49.5515748 23.9398399,50.6248579 C24.1943408,51.6981409 25.0020991,52.5541207 26.0588399,52.8703579 C27.1155808,53.1865951 28.2607601,52.9150458 29.063,52.158 L34.263,47.248 C35.1669295,46.3891942 35.4665876,45.0714968 35.022951,43.9062403 C34.5793143,42.7409839 33.479202,41.9562074 32.233,41.916 Z" id="Shape"></path>
            <path d="M24.009,33.2 C24.0396655,31.9554929 23.3207656,30.8140442 22.18512,30.3040957 C21.0494745,29.7941471 19.7187441,30.015233 18.809,30.865 L13.609,35.775 C12.3901242,36.9495713 12.3440217,38.8864702 13.5056339,40.1177025 C14.6672461,41.3489347 16.6035491,41.4155232 17.847,40.267 L23.047,35.356 C23.6425056,34.7944878 23.9888646,34.0182404 24.009,33.2 Z" id="Shape"></path>
        </g>
        <text id="SLENDER" font-family="GillSans, Gill Sans" font-size="30" font-weight="normal" letter-spacing="0.360000014" fill="#471098">
            <tspan x="0.494882762" y="79">SLENDER</tspan>
        </text>
        <text id="Help-you,-help-me" font-family="LucidaGrande, Lucida Grande" font-size="10" font-weight="normal" letter-spacing="-0.87499994" fill="#471098" fill-opacity="0.5">
            <tspan x="26.335937" y="92">Help you, help me</tspan>
        </text>
    </g>
</svg>